<mxfile host="app.diagrams.net" modified="2022-08-22T09:55:05.858Z" agent="5.0 (Macintosh; Intel Mac OS X 10_15_6) AppleWebKit/605.1.15 (KHTML, like Gecko) Version/15.6.1 Safari/605.1.15" etag="Tbaw09ghED3AqPXbdVMI" version="20.2.5" type="github" pages="2">
  <diagram id="wJk0ypLflVGmFp3NoVV6" name="第 1 页">
    <mxGraphModel dx="31839" dy="9161" grid="1" gridSize="10" guides="1" tooltips="1" connect="1" arrows="1" fold="1" page="1" pageScale="1" pageWidth="827" pageHeight="1169" math="0" shadow="0">
      <root>
        <mxCell id="0" />
        <mxCell id="1" parent="0" />
        <mxCell id="wKMauf6XAUWWl915PFS1-1" value="" style="sketch=0;aspect=fixed;html=1;points=[];align=center;image;fontSize=12;image=img/lib/mscae/WebHosting.svg;" parent="1" vertex="1">
          <mxGeometry x="-30090" y="-8110" width="120" height="120" as="geometry" />
        </mxCell>
        <mxCell id="wKMauf6XAUWWl915PFS1-2" value="" style="points=[];aspect=fixed;html=1;align=center;shadow=0;dashed=0;image;image=img/lib/allied_telesis/computer_and_terminals/Laptop.svg;" parent="1" vertex="1">
          <mxGeometry x="-30500" y="-8110" width="108.45" height="110" as="geometry" />
        </mxCell>
        <mxCell id="wKMauf6XAUWWl915PFS1-7" value="客户端支持的最高版本、加密套件列表、&lt;br&gt;压缩算法列表、客户端随机数、会话ID=0" style="text;html=1;align=center;verticalAlign=middle;resizable=0;points=[];autosize=1;strokeColor=none;fillColor=none;" parent="1" vertex="1">
          <mxGeometry x="-30360" y="-7980" width="240" height="40" as="geometry" />
        </mxCell>
        <mxCell id="8CLprV75vN-8KM-Uf_7z-1" value="" style="endArrow=classic;html=1;rounded=0;" parent="1" edge="1">
          <mxGeometry width="50" height="50" relative="1" as="geometry">
            <mxPoint x="-30400" y="-7930" as="sourcePoint" />
            <mxPoint x="-30090" y="-7930" as="targetPoint" />
          </mxGeometry>
        </mxCell>
        <mxCell id="8CLprV75vN-8KM-Uf_7z-2" value="服务器同意的版本、加密套件、压缩算法、&lt;br&gt;会话ID、服务器随机数" style="text;html=1;align=center;verticalAlign=middle;resizable=0;points=[];autosize=1;strokeColor=none;fillColor=none;" parent="1" vertex="1">
          <mxGeometry x="-30360" y="-7920" width="250" height="40" as="geometry" />
        </mxCell>
        <mxCell id="8CLprV75vN-8KM-Uf_7z-4" value="" style="endArrow=classic;html=1;rounded=0;" parent="1" edge="1">
          <mxGeometry width="50" height="50" relative="1" as="geometry">
            <mxPoint x="-30090" y="-7870" as="sourcePoint" />
            <mxPoint x="-30400" y="-7870" as="targetPoint" />
          </mxGeometry>
        </mxCell>
        <mxCell id="8CLprV75vN-8KM-Uf_7z-5" value="服务器的证书" style="text;html=1;align=center;verticalAlign=middle;resizable=0;points=[];autosize=1;strokeColor=none;fillColor=none;" parent="1" vertex="1">
          <mxGeometry x="-30285" y="-7855" width="100" height="30" as="geometry" />
        </mxCell>
        <mxCell id="8CLprV75vN-8KM-Uf_7z-6" value="" style="endArrow=classic;html=1;rounded=0;" parent="1" edge="1">
          <mxGeometry width="50" height="50" relative="1" as="geometry">
            <mxPoint x="-30090" y="-7810" as="sourcePoint" />
            <mxPoint x="-30400" y="-7810" as="targetPoint" />
          </mxGeometry>
        </mxCell>
        <mxCell id="8CLprV75vN-8KM-Uf_7z-7" value="服务端密钥交换的附加信息" style="text;html=1;align=center;verticalAlign=middle;resizable=0;points=[];autosize=1;strokeColor=none;fillColor=none;" parent="1" vertex="1">
          <mxGeometry x="-30320" y="-7795" width="170" height="30" as="geometry" />
        </mxCell>
        <mxCell id="8CLprV75vN-8KM-Uf_7z-8" value="" style="endArrow=classic;html=1;rounded=0;" parent="1" edge="1">
          <mxGeometry width="50" height="50" relative="1" as="geometry">
            <mxPoint x="-30090" y="-7750" as="sourcePoint" />
            <mxPoint x="-30400" y="-7750" as="targetPoint" />
          </mxGeometry>
        </mxCell>
        <mxCell id="8CLprV75vN-8KM-Uf_7z-10" value="通知对方服务端握手消息发完" style="text;html=1;align=center;verticalAlign=middle;resizable=0;points=[];autosize=1;strokeColor=none;fillColor=none;" parent="1" vertex="1">
          <mxGeometry x="-30320" y="-7740" width="180" height="30" as="geometry" />
        </mxCell>
        <mxCell id="8CLprV75vN-8KM-Uf_7z-11" value="" style="endArrow=classic;html=1;rounded=0;" parent="1" edge="1">
          <mxGeometry width="50" height="50" relative="1" as="geometry">
            <mxPoint x="-30090" y="-7695" as="sourcePoint" />
            <mxPoint x="-30400" y="-7695" as="targetPoint" />
          </mxGeometry>
        </mxCell>
        <mxCell id="8CLprV75vN-8KM-Uf_7z-12" value="客户端产生PreMasterKey密钥参数" style="text;html=1;align=center;verticalAlign=middle;resizable=0;points=[];autosize=1;strokeColor=none;fillColor=none;" parent="1" vertex="1">
          <mxGeometry x="-30340" y="-7680" width="210" height="30" as="geometry" />
        </mxCell>
        <mxCell id="8CLprV75vN-8KM-Uf_7z-13" value="" style="endArrow=classic;html=1;rounded=0;" parent="1" edge="1">
          <mxGeometry width="50" height="50" relative="1" as="geometry">
            <mxPoint x="-30400" y="-7635" as="sourcePoint" />
            <mxPoint x="-30090" y="-7635" as="targetPoint" />
          </mxGeometry>
        </mxCell>
        <mxCell id="8CLprV75vN-8KM-Uf_7z-14" value="通知对方本端已经开始启用加密参数" style="text;html=1;align=center;verticalAlign=middle;resizable=0;points=[];autosize=1;strokeColor=none;fillColor=none;" parent="1" vertex="1">
          <mxGeometry x="-30345" y="-7622" width="220" height="30" as="geometry" />
        </mxCell>
        <mxCell id="8CLprV75vN-8KM-Uf_7z-15" value="" style="endArrow=classic;html=1;rounded=0;" parent="1" edge="1">
          <mxGeometry width="50" height="50" relative="1" as="geometry">
            <mxPoint x="-30400" y="-7577" as="sourcePoint" />
            <mxPoint x="-30090" y="-7577" as="targetPoint" />
          </mxGeometry>
        </mxCell>
        <mxCell id="8CLprV75vN-8KM-Uf_7z-16" value="发送自己计算握手过程验证报文" style="text;html=1;align=center;verticalAlign=middle;resizable=0;points=[];autosize=1;strokeColor=none;fillColor=none;" parent="1" vertex="1">
          <mxGeometry x="-30330" y="-7560" width="190" height="30" as="geometry" />
        </mxCell>
        <mxCell id="8CLprV75vN-8KM-Uf_7z-17" value="" style="endArrow=classic;html=1;rounded=0;" parent="1" edge="1">
          <mxGeometry width="50" height="50" relative="1" as="geometry">
            <mxPoint x="-30400" y="-7515" as="sourcePoint" />
            <mxPoint x="-30090" y="-7515" as="targetPoint" />
          </mxGeometry>
        </mxCell>
        <mxCell id="8CLprV75vN-8KM-Uf_7z-55" value="通知对方本端已经开始启用加密参数" style="text;html=1;align=center;verticalAlign=middle;resizable=0;points=[];autosize=1;strokeColor=none;fillColor=none;" parent="1" vertex="1">
          <mxGeometry x="-30345" y="-7510" width="220" height="30" as="geometry" />
        </mxCell>
        <mxCell id="8CLprV75vN-8KM-Uf_7z-56" value="" style="endArrow=classic;html=1;rounded=0;" parent="1" edge="1">
          <mxGeometry width="50" height="50" relative="1" as="geometry">
            <mxPoint x="-30090" y="-7465" as="sourcePoint" />
            <mxPoint x="-30400" y="-7465" as="targetPoint" />
          </mxGeometry>
        </mxCell>
        <mxCell id="8CLprV75vN-8KM-Uf_7z-57" value="发送自己计算握手过程验证报文" style="text;html=1;align=center;verticalAlign=middle;resizable=0;points=[];autosize=1;strokeColor=none;fillColor=none;" parent="1" vertex="1">
          <mxGeometry x="-30330" y="-7448" width="190" height="30" as="geometry" />
        </mxCell>
        <mxCell id="8CLprV75vN-8KM-Uf_7z-58" value="" style="endArrow=classic;html=1;rounded=0;" parent="1" edge="1">
          <mxGeometry width="50" height="50" relative="1" as="geometry">
            <mxPoint x="-30090" y="-7403" as="sourcePoint" />
            <mxPoint x="-30400" y="-7403" as="targetPoint" />
          </mxGeometry>
        </mxCell>
        <mxCell id="8CLprV75vN-8KM-Uf_7z-59" value="传送应用层数据" style="text;html=1;align=center;verticalAlign=middle;resizable=0;points=[];autosize=1;strokeColor=none;fillColor=none;" parent="1" vertex="1">
          <mxGeometry x="-30290" y="-7390" width="110" height="30" as="geometry" />
        </mxCell>
        <mxCell id="8CLprV75vN-8KM-Uf_7z-61" value="" style="endArrow=none;dashed=1;html=1;rounded=0;" parent="1" edge="1">
          <mxGeometry width="50" height="50" relative="1" as="geometry">
            <mxPoint x="-30402" y="-7300" as="sourcePoint" />
            <mxPoint x="-30402" y="-7970" as="targetPoint" />
          </mxGeometry>
        </mxCell>
        <mxCell id="8CLprV75vN-8KM-Uf_7z-62" value="" style="endArrow=none;dashed=1;html=1;rounded=0;" parent="1" edge="1">
          <mxGeometry width="50" height="50" relative="1" as="geometry">
            <mxPoint x="-30088" y="-7300" as="sourcePoint" />
            <mxPoint x="-30088" y="-7960" as="targetPoint" />
          </mxGeometry>
        </mxCell>
        <mxCell id="8CLprV75vN-8KM-Uf_7z-64" value="Client Hello" style="text;html=1;align=center;verticalAlign=middle;resizable=0;points=[];autosize=1;strokeColor=none;fillColor=none;" parent="1" vertex="1">
          <mxGeometry x="-30520" y="-7940" width="80" height="30" as="geometry" />
        </mxCell>
        <mxCell id="8CLprV75vN-8KM-Uf_7z-65" value="Serve Hello" style="text;html=1;align=center;verticalAlign=middle;resizable=0;points=[];autosize=1;strokeColor=none;fillColor=none;" parent="1" vertex="1">
          <mxGeometry x="-30055" y="-7885" width="90" height="30" as="geometry" />
        </mxCell>
        <mxCell id="8CLprV75vN-8KM-Uf_7z-66" value="Serverficate" style="text;html=1;align=center;verticalAlign=middle;resizable=0;points=[];autosize=1;strokeColor=none;fillColor=none;" parent="1" vertex="1">
          <mxGeometry x="-30060" y="-7825" width="90" height="30" as="geometry" />
        </mxCell>
        <mxCell id="8CLprV75vN-8KM-Uf_7z-67" value="ServerKeyExchange *" style="text;html=1;align=center;verticalAlign=middle;resizable=0;points=[];autosize=1;strokeColor=none;fillColor=none;" parent="1" vertex="1">
          <mxGeometry x="-30080" y="-7770" width="140" height="30" as="geometry" />
        </mxCell>
        <mxCell id="8CLprV75vN-8KM-Uf_7z-68" value="ServerHelloDone" style="text;html=1;align=center;verticalAlign=middle;resizable=0;points=[];autosize=1;strokeColor=none;fillColor=none;" parent="1" vertex="1">
          <mxGeometry x="-30070" y="-7710" width="110" height="30" as="geometry" />
        </mxCell>
        <mxCell id="8CLprV75vN-8KM-Uf_7z-69" value="ClientKeyExchange" style="text;html=1;align=center;verticalAlign=middle;resizable=0;points=[];autosize=1;strokeColor=none;fillColor=none;" parent="1" vertex="1">
          <mxGeometry x="-30545" y="-7655" width="130" height="30" as="geometry" />
        </mxCell>
        <mxCell id="8CLprV75vN-8KM-Uf_7z-70" value="ChangeCipherSpec" style="text;html=1;align=center;verticalAlign=middle;resizable=0;points=[];autosize=1;strokeColor=none;fillColor=none;" parent="1" vertex="1">
          <mxGeometry x="-30545" y="-7598" width="130" height="30" as="geometry" />
        </mxCell>
        <mxCell id="8CLprV75vN-8KM-Uf_7z-71" value="Finished" style="text;html=1;align=center;verticalAlign=middle;resizable=0;points=[];autosize=1;strokeColor=none;fillColor=none;" parent="1" vertex="1">
          <mxGeometry x="-30525" y="-7535" width="70" height="30" as="geometry" />
        </mxCell>
        <mxCell id="8CLprV75vN-8KM-Uf_7z-72" value="" style="endArrow=classic;startArrow=classic;html=1;rounded=0;" parent="1" edge="1">
          <mxGeometry width="50" height="50" relative="1" as="geometry">
            <mxPoint x="-30400" y="-7340" as="sourcePoint" />
            <mxPoint x="-30090" y="-7340" as="targetPoint" />
          </mxGeometry>
        </mxCell>
        <mxCell id="8CLprV75vN-8KM-Uf_7z-73" value="ChangeCipherSpec" style="text;html=1;align=center;verticalAlign=middle;resizable=0;points=[];autosize=1;strokeColor=none;fillColor=none;" parent="1" vertex="1">
          <mxGeometry x="-30080" y="-7460" width="130" height="30" as="geometry" />
        </mxCell>
        <mxCell id="8CLprV75vN-8KM-Uf_7z-74" value="Finished" style="text;html=1;align=center;verticalAlign=middle;resizable=0;points=[];autosize=1;strokeColor=none;fillColor=none;" parent="1" vertex="1">
          <mxGeometry x="-30050" y="-7410" width="70" height="30" as="geometry" />
        </mxCell>
        <mxCell id="8CLprV75vN-8KM-Uf_7z-75" value="Application Data" style="text;html=1;align=center;verticalAlign=middle;resizable=0;points=[];autosize=1;strokeColor=none;fillColor=none;" parent="1" vertex="1">
          <mxGeometry x="-30070" y="-7350" width="110" height="30" as="geometry" />
        </mxCell>
        <mxCell id="8CLprV75vN-8KM-Uf_7z-76" value="Application Data" style="text;html=1;align=center;verticalAlign=middle;resizable=0;points=[];autosize=1;strokeColor=none;fillColor=none;" parent="1" vertex="1">
          <mxGeometry x="-30535" y="-7360" width="110" height="30" as="geometry" />
        </mxCell>
        <mxCell id="8CLprV75vN-8KM-Uf_7z-77" value="&lt;font style=&quot;font-size: 24px;&quot;&gt;单向握手&lt;/font&gt;" style="text;html=1;align=center;verticalAlign=middle;resizable=0;points=[];autosize=1;strokeColor=none;fillColor=none;" parent="1" vertex="1">
          <mxGeometry x="-30410" y="-8170" width="120" height="40" as="geometry" />
        </mxCell>
      </root>
    </mxGraphModel>
  </diagram>
  <diagram id="y3mSbSGbyCPkWb65SjBu" name="第 2 页">
    <mxGraphModel dx="644" dy="1538" grid="1" gridSize="10" guides="1" tooltips="1" connect="1" arrows="1" fold="1" page="1" pageScale="1" pageWidth="827" pageHeight="1169" math="0" shadow="0">
      <root>
        <mxCell id="0" />
        <mxCell id="1" parent="0" />
        <mxCell id="qxqFmVKAdnkKBHwftlcn-1" value="" style="sketch=0;aspect=fixed;html=1;points=[];align=center;image;fontSize=12;image=img/lib/mscae/WebHosting.svg;rounded=0;" vertex="1" parent="1">
          <mxGeometry x="715" y="130" width="120" height="120" as="geometry" />
        </mxCell>
        <mxCell id="qxqFmVKAdnkKBHwftlcn-2" value="" style="points=[];aspect=fixed;html=1;align=center;shadow=0;dashed=0;image;image=img/lib/allied_telesis/computer_and_terminals/Laptop.svg;rounded=0;" vertex="1" parent="1">
          <mxGeometry x="305" y="130" width="108.45" height="110" as="geometry" />
        </mxCell>
        <mxCell id="qxqFmVKAdnkKBHwftlcn-3" value="客户端支持的最高版本、加密套件列表、&lt;br&gt;压缩算法列表、客户端随机数、会话ID=0" style="text;html=1;align=center;verticalAlign=middle;resizable=0;points=[];autosize=1;strokeColor=none;fillColor=none;rounded=0;" vertex="1" parent="1">
          <mxGeometry x="445" y="260" width="240" height="40" as="geometry" />
        </mxCell>
        <mxCell id="qxqFmVKAdnkKBHwftlcn-4" value="" style="endArrow=classic;html=1;rounded=0;" edge="1" parent="1">
          <mxGeometry width="50" height="50" relative="1" as="geometry">
            <mxPoint x="405" y="310" as="sourcePoint" />
            <mxPoint x="715" y="310" as="targetPoint" />
          </mxGeometry>
        </mxCell>
        <mxCell id="qxqFmVKAdnkKBHwftlcn-5" value="服务器同意的版本、加密套件、压缩算法、&lt;br&gt;会话ID、服务器随机数" style="text;html=1;align=center;verticalAlign=middle;resizable=0;points=[];autosize=1;strokeColor=none;fillColor=none;rounded=0;" vertex="1" parent="1">
          <mxGeometry x="445" y="320" width="250" height="40" as="geometry" />
        </mxCell>
        <mxCell id="qxqFmVKAdnkKBHwftlcn-6" value="" style="endArrow=classic;html=1;rounded=0;" edge="1" parent="1">
          <mxGeometry width="50" height="50" relative="1" as="geometry">
            <mxPoint x="715" y="370" as="sourcePoint" />
            <mxPoint x="405" y="370" as="targetPoint" />
          </mxGeometry>
        </mxCell>
        <mxCell id="qxqFmVKAdnkKBHwftlcn-7" value="服务器的证书" style="text;html=1;align=center;verticalAlign=middle;resizable=0;points=[];autosize=1;strokeColor=none;fillColor=none;rounded=0;" vertex="1" parent="1">
          <mxGeometry x="520" y="385" width="100" height="30" as="geometry" />
        </mxCell>
        <mxCell id="qxqFmVKAdnkKBHwftlcn-8" value="" style="endArrow=classic;html=1;rounded=0;" edge="1" parent="1">
          <mxGeometry width="50" height="50" relative="1" as="geometry">
            <mxPoint x="715" y="430" as="sourcePoint" />
            <mxPoint x="405" y="430" as="targetPoint" />
          </mxGeometry>
        </mxCell>
        <mxCell id="qxqFmVKAdnkKBHwftlcn-9" value="服务端密钥交换的附加信息" style="text;html=1;align=center;verticalAlign=middle;resizable=0;points=[];autosize=1;strokeColor=none;fillColor=none;rounded=0;" vertex="1" parent="1">
          <mxGeometry x="485" y="445" width="170" height="30" as="geometry" />
        </mxCell>
        <mxCell id="qxqFmVKAdnkKBHwftlcn-10" value="" style="endArrow=classic;html=1;rounded=0;" edge="1" parent="1">
          <mxGeometry width="50" height="50" relative="1" as="geometry">
            <mxPoint x="715" y="490" as="sourcePoint" />
            <mxPoint x="405" y="490" as="targetPoint" />
          </mxGeometry>
        </mxCell>
        <mxCell id="qxqFmVKAdnkKBHwftlcn-11" value="&lt;font color=&quot;#ff0000&quot;&gt;客户端证书&lt;/font&gt;" style="text;html=1;align=center;verticalAlign=middle;resizable=0;points=[];autosize=1;strokeColor=#b85450;fillColor=#f8cecc;rounded=0;" vertex="1" parent="1">
          <mxGeometry x="525" y="570" width="80" height="30" as="geometry" />
        </mxCell>
        <mxCell id="qxqFmVKAdnkKBHwftlcn-12" value="" style="endArrow=classic;html=1;rounded=0;" edge="1" parent="1">
          <mxGeometry width="50" height="50" relative="1" as="geometry">
            <mxPoint x="405" y="620" as="sourcePoint" />
            <mxPoint x="715" y="620" as="targetPoint" />
          </mxGeometry>
        </mxCell>
        <mxCell id="qxqFmVKAdnkKBHwftlcn-13" value="客户端产生PreMasterKey密钥参数" style="text;html=1;align=center;verticalAlign=middle;resizable=0;points=[];autosize=1;strokeColor=none;fillColor=none;rounded=0;" vertex="1" parent="1">
          <mxGeometry x="465" y="635" width="210" height="30" as="geometry" />
        </mxCell>
        <mxCell id="qxqFmVKAdnkKBHwftlcn-14" value="" style="endArrow=classic;html=1;rounded=0;" edge="1" parent="1">
          <mxGeometry width="50" height="50" relative="1" as="geometry">
            <mxPoint x="405" y="680" as="sourcePoint" />
            <mxPoint x="715" y="680" as="targetPoint" />
          </mxGeometry>
        </mxCell>
        <mxCell id="qxqFmVKAdnkKBHwftlcn-46" value="前面所有握手消息的数字签名" style="edgeLabel;html=1;align=center;verticalAlign=middle;resizable=0;points=[];fontColor=#FF0000;" vertex="1" connectable="0" parent="qxqFmVKAdnkKBHwftlcn-14">
          <mxGeometry x="-0.2194" y="-32" relative="1" as="geometry">
            <mxPoint x="34" as="offset" />
          </mxGeometry>
        </mxCell>
        <mxCell id="qxqFmVKAdnkKBHwftlcn-15" value="通知对方本端已经开始启用加密参数" style="text;html=1;align=center;verticalAlign=middle;resizable=0;points=[];autosize=1;strokeColor=none;fillColor=none;rounded=0;" vertex="1" parent="1">
          <mxGeometry x="462.5" y="790" width="220" height="30" as="geometry" />
        </mxCell>
        <mxCell id="qxqFmVKAdnkKBHwftlcn-16" value="" style="endArrow=classic;html=1;rounded=0;" edge="1" parent="1">
          <mxGeometry width="50" height="50" relative="1" as="geometry">
            <mxPoint x="407.5" y="835" as="sourcePoint" />
            <mxPoint x="717.5" y="835" as="targetPoint" />
          </mxGeometry>
        </mxCell>
        <mxCell id="qxqFmVKAdnkKBHwftlcn-17" value="发送自己计算握手过程验证报文" style="text;html=1;align=center;verticalAlign=middle;resizable=0;points=[];autosize=1;strokeColor=none;fillColor=none;rounded=0;" vertex="1" parent="1">
          <mxGeometry x="477.5" y="852" width="190" height="30" as="geometry" />
        </mxCell>
        <mxCell id="qxqFmVKAdnkKBHwftlcn-18" value="" style="endArrow=classic;html=1;rounded=0;" edge="1" parent="1">
          <mxGeometry width="50" height="50" relative="1" as="geometry">
            <mxPoint x="407.5" y="897" as="sourcePoint" />
            <mxPoint x="717.5" y="897" as="targetPoint" />
          </mxGeometry>
        </mxCell>
        <mxCell id="qxqFmVKAdnkKBHwftlcn-19" value="通知对方本端已经开始启用加密参数" style="text;html=1;align=center;verticalAlign=middle;resizable=0;points=[];autosize=1;strokeColor=none;fillColor=none;rounded=0;" vertex="1" parent="1">
          <mxGeometry x="462.5" y="902" width="220" height="30" as="geometry" />
        </mxCell>
        <mxCell id="qxqFmVKAdnkKBHwftlcn-20" value="" style="endArrow=classic;html=1;rounded=0;" edge="1" parent="1">
          <mxGeometry width="50" height="50" relative="1" as="geometry">
            <mxPoint x="717.5" y="947" as="sourcePoint" />
            <mxPoint x="407.5" y="947" as="targetPoint" />
          </mxGeometry>
        </mxCell>
        <mxCell id="qxqFmVKAdnkKBHwftlcn-21" value="发送自己计算握手过程验证报文" style="text;html=1;align=center;verticalAlign=middle;resizable=0;points=[];autosize=1;strokeColor=none;fillColor=none;rounded=0;" vertex="1" parent="1">
          <mxGeometry x="477.5" y="964" width="190" height="30" as="geometry" />
        </mxCell>
        <mxCell id="qxqFmVKAdnkKBHwftlcn-22" value="" style="endArrow=classic;html=1;rounded=0;" edge="1" parent="1">
          <mxGeometry width="50" height="50" relative="1" as="geometry">
            <mxPoint x="717.5" y="1009" as="sourcePoint" />
            <mxPoint x="407.5" y="1009" as="targetPoint" />
          </mxGeometry>
        </mxCell>
        <mxCell id="qxqFmVKAdnkKBHwftlcn-23" value="传送应用层数据" style="text;html=1;align=center;verticalAlign=middle;resizable=0;points=[];autosize=1;strokeColor=none;fillColor=none;rounded=0;" vertex="1" parent="1">
          <mxGeometry x="517.5" y="1022" width="110" height="30" as="geometry" />
        </mxCell>
        <mxCell id="qxqFmVKAdnkKBHwftlcn-24" value="" style="endArrow=none;dashed=1;html=1;rounded=0;" edge="1" parent="1">
          <mxGeometry width="50" height="50" relative="1" as="geometry">
            <mxPoint x="403" y="1100" as="sourcePoint" />
            <mxPoint x="403" y="270" as="targetPoint" />
          </mxGeometry>
        </mxCell>
        <mxCell id="qxqFmVKAdnkKBHwftlcn-25" value="" style="endArrow=none;dashed=1;html=1;rounded=0;" edge="1" parent="1">
          <mxGeometry width="50" height="50" relative="1" as="geometry">
            <mxPoint x="717" y="1090" as="sourcePoint" />
            <mxPoint x="717" y="280" as="targetPoint" />
          </mxGeometry>
        </mxCell>
        <mxCell id="qxqFmVKAdnkKBHwftlcn-26" value="Client Hello" style="text;html=1;align=center;verticalAlign=middle;resizable=0;points=[];autosize=1;strokeColor=none;fillColor=none;rounded=0;" vertex="1" parent="1">
          <mxGeometry x="285" y="300" width="80" height="30" as="geometry" />
        </mxCell>
        <mxCell id="qxqFmVKAdnkKBHwftlcn-27" value="Serve Hello" style="text;html=1;align=center;verticalAlign=middle;resizable=0;points=[];autosize=1;strokeColor=none;fillColor=none;rounded=0;" vertex="1" parent="1">
          <mxGeometry x="750" y="355" width="90" height="30" as="geometry" />
        </mxCell>
        <mxCell id="qxqFmVKAdnkKBHwftlcn-28" value="Serverficate" style="text;html=1;align=center;verticalAlign=middle;resizable=0;points=[];autosize=1;strokeColor=none;fillColor=none;rounded=0;" vertex="1" parent="1">
          <mxGeometry x="745" y="415" width="90" height="30" as="geometry" />
        </mxCell>
        <mxCell id="qxqFmVKAdnkKBHwftlcn-29" value="ServerKeyExchange *" style="text;html=1;align=center;verticalAlign=middle;resizable=0;points=[];autosize=1;strokeColor=none;fillColor=none;rounded=0;" vertex="1" parent="1">
          <mxGeometry x="725" y="470" width="140" height="30" as="geometry" />
        </mxCell>
        <mxCell id="qxqFmVKAdnkKBHwftlcn-30" value="ServerHelloDone" style="text;html=1;align=center;verticalAlign=middle;resizable=0;points=[];autosize=1;strokeColor=none;fillColor=none;rounded=0;" vertex="1" parent="1">
          <mxGeometry x="740" y="605" width="110" height="30" as="geometry" />
        </mxCell>
        <mxCell id="qxqFmVKAdnkKBHwftlcn-31" value="ClientKeyExchange" style="text;html=1;align=center;verticalAlign=middle;resizable=0;points=[];autosize=1;strokeColor=none;fillColor=none;rounded=0;" vertex="1" parent="1">
          <mxGeometry x="260" y="660" width="130" height="30" as="geometry" />
        </mxCell>
        <mxCell id="qxqFmVKAdnkKBHwftlcn-32" value="ChangeCipherSpec" style="text;html=1;align=center;verticalAlign=middle;resizable=0;points=[];autosize=1;strokeColor=none;fillColor=none;rounded=0;" vertex="1" parent="1">
          <mxGeometry x="262.5" y="814" width="130" height="30" as="geometry" />
        </mxCell>
        <mxCell id="qxqFmVKAdnkKBHwftlcn-33" value="Finished" style="text;html=1;align=center;verticalAlign=middle;resizable=0;points=[];autosize=1;strokeColor=none;fillColor=none;rounded=0;" vertex="1" parent="1">
          <mxGeometry x="282.5" y="877" width="70" height="30" as="geometry" />
        </mxCell>
        <mxCell id="qxqFmVKAdnkKBHwftlcn-34" value="" style="endArrow=classic;startArrow=classic;html=1;rounded=0;" edge="1" parent="1">
          <mxGeometry width="50" height="50" relative="1" as="geometry">
            <mxPoint x="407.5" y="1072" as="sourcePoint" />
            <mxPoint x="717.5" y="1072" as="targetPoint" />
          </mxGeometry>
        </mxCell>
        <mxCell id="qxqFmVKAdnkKBHwftlcn-35" value="ChangeCipherSpec" style="text;html=1;align=center;verticalAlign=middle;resizable=0;points=[];autosize=1;strokeColor=none;fillColor=none;rounded=0;" vertex="1" parent="1">
          <mxGeometry x="727.5" y="952" width="130" height="30" as="geometry" />
        </mxCell>
        <mxCell id="qxqFmVKAdnkKBHwftlcn-36" value="Finished" style="text;html=1;align=center;verticalAlign=middle;resizable=0;points=[];autosize=1;strokeColor=none;fillColor=none;rounded=0;" vertex="1" parent="1">
          <mxGeometry x="757.5" y="1002" width="70" height="30" as="geometry" />
        </mxCell>
        <mxCell id="qxqFmVKAdnkKBHwftlcn-37" value="Application Data" style="text;html=1;align=center;verticalAlign=middle;resizable=0;points=[];autosize=1;strokeColor=none;fillColor=none;rounded=0;" vertex="1" parent="1">
          <mxGeometry x="737.5" y="1062" width="110" height="30" as="geometry" />
        </mxCell>
        <mxCell id="qxqFmVKAdnkKBHwftlcn-38" value="Application Data" style="text;html=1;align=center;verticalAlign=middle;resizable=0;points=[];autosize=1;strokeColor=none;fillColor=none;rounded=0;" vertex="1" parent="1">
          <mxGeometry x="272.5" y="1052" width="110" height="30" as="geometry" />
        </mxCell>
        <mxCell id="qxqFmVKAdnkKBHwftlcn-39" value="" style="endArrow=classic;html=1;fillColor=#f8cecc;strokeColor=#b85450;" edge="1" parent="1">
          <mxGeometry width="50" height="50" relative="1" as="geometry">
            <mxPoint x="715" y="550" as="sourcePoint" />
            <mxPoint x="405" y="550" as="targetPoint" />
          </mxGeometry>
        </mxCell>
        <mxCell id="qxqFmVKAdnkKBHwftlcn-41" value="&lt;b&gt;&lt;font color=&quot;#ff0000&quot;&gt;向客户端索要证书&lt;/font&gt;&lt;/b&gt;" style="text;html=1;align=center;verticalAlign=middle;resizable=0;points=[];autosize=1;strokeColor=#b85450;fillColor=#f8cecc;" vertex="1" parent="1">
          <mxGeometry x="500" y="510" width="120" height="30" as="geometry" />
        </mxCell>
        <mxCell id="qxqFmVKAdnkKBHwftlcn-42" value="Certificate *" style="text;html=1;align=center;verticalAlign=middle;resizable=0;points=[];autosize=1;strokeColor=none;fillColor=none;fontColor=#FF0000;" vertex="1" parent="1">
          <mxGeometry x="290" y="605" width="90" height="30" as="geometry" />
        </mxCell>
        <mxCell id="qxqFmVKAdnkKBHwftlcn-43" value="CertificateRequest&amp;nbsp;" style="text;html=1;align=center;verticalAlign=middle;resizable=0;points=[];autosize=1;strokeColor=none;fillColor=none;fontColor=#FF0000;" vertex="1" parent="1">
          <mxGeometry x="725" y="540" width="130" height="30" as="geometry" />
        </mxCell>
        <mxCell id="qxqFmVKAdnkKBHwftlcn-45" value="" style="endArrow=classic;html=1;rounded=0;" edge="1" parent="1">
          <mxGeometry width="50" height="50" relative="1" as="geometry">
            <mxPoint x="405" y="740" as="sourcePoint" />
            <mxPoint x="715" y="740" as="targetPoint" />
          </mxGeometry>
        </mxCell>
        <mxCell id="qxqFmVKAdnkKBHwftlcn-47" value="CertificateVerify *" style="text;html=1;align=center;verticalAlign=middle;resizable=0;points=[];autosize=1;strokeColor=none;fillColor=none;fontColor=#FF0000;" vertex="1" parent="1">
          <mxGeometry x="267.5" y="720" width="120" height="30" as="geometry" />
        </mxCell>
        <mxCell id="qxqFmVKAdnkKBHwftlcn-48" value="&lt;font style=&quot;font-size: 20px;&quot; color=&quot;#000000&quot;&gt;&lt;b&gt;双向认证&lt;/b&gt;&lt;/font&gt;" style="text;html=1;align=center;verticalAlign=middle;resizable=0;points=[];autosize=1;strokeColor=none;fillColor=none;fontColor=#FF0000;" vertex="1" parent="1">
          <mxGeometry x="170" y="40" width="100" height="40" as="geometry" />
        </mxCell>
      </root>
    </mxGraphModel>
  </diagram>
</mxfile>
